<svg data-v-423bf9ae="" xmlns="http://www.w3.org/2000/svg" viewBox="0 0 485 90" class="iconLeft"><!----><!----><!----><g data-v-423bf9ae="" id="d6ce28d6-5360-4e7a-bbe7-a13ec2ff0d51" fill="white" transform="matrix(5.376344159530915,0,0,5.376344159530915,146.0854312064409,-0.05376458241538984)"><path d="M1.16 13.78L1.16 2.80L3.92 2.80L5.87 11.98L7.81 2.80L10.58 2.80L10.58 13.78L8.87 13.78L8.85 7.20L8.97 4.24L8.90 4.24L6.68 13.78L5.07 13.78L2.84 4.24L2.77 4.24L2.88 7.18L2.87 13.78L1.16 13.78ZM18.29 9.44L18.29 9.44Q18.29 9.97 18.25 10.19L18.25 10.19L13.76 10.19L13.76 10.19Q13.77 10.86 13.99 11.40L13.99 11.40L13.99 11.40Q14.20 11.94 14.60 12.26L14.60 12.26L14.60 12.26Q15.00 12.57 15.55 12.57L15.55 12.57L15.55 12.57Q16.47 12.57 17.03 11.77L17.03 11.77L18.14 12.37L18.14 12.37Q17.69 13.23 17.02 13.59L17.02 13.59L17.02 13.59Q16.35 13.95 15.49 13.95L15.49 13.95L15.49 13.95Q14.45 13.95 13.69 13.40L13.69 13.40L13.69 13.40Q12.93 12.86 12.54 11.90L12.54 11.90L12.54 11.90Q12.14 10.95 12.14 9.73L12.14 9.73L12.14 9.73Q12.14 8.51 12.46 7.56L12.46 7.56L12.46 7.56Q12.78 6.60 13.49 6.04L13.49 6.04L13.49 6.04Q14.20 5.48 15.30 5.48L15.30 5.48L15.30 5.48Q16.93 5.48 17.61 6.58L17.61 6.58L17.61 6.58Q18.29 7.69 18.29 9.44L18.29 9.44ZM15.33 6.80L15.33 6.80Q14.51 6.80 14.16 7.42L14.16 7.42L14.16 7.42Q13.80 8.05 13.77 9.04L13.77 9.04L16.86 9.04L16.86 9.04Q16.84 8.31 16.71 7.83L16.71 7.83L16.71 7.83Q16.58 7.35 16.25 7.08L16.25 7.08L16.25 7.08Q15.91 6.80 15.33 6.80L15.33 6.80ZM19.61 13.78L19.61 5.63L21.19 5.63L21.25 6.88L21.31 6.88L21.31 6.88Q21.62 6.21 22.11 5.84L22.11 5.84L22.11 5.84Q22.61 5.48 23.29 5.48L23.29 5.48L23.29 5.48Q23.96 5.48 24.47 5.81L24.47 5.81L24.47 5.81Q24.97 6.15 25.25 6.77L25.25 6.77L25.25 6.77Q25.53 7.40 25.53 8.24L25.53 8.24L25.53 13.78L23.86 13.78L23.86 8.41L23.86 8.41Q23.86 7.57 23.58 7.20L23.58 7.20L23.58 7.20Q23.30 6.84 22.74 6.84L22.74 6.84L22.74 6.84Q22.30 6.84 21.97 7.09L21.97 7.09L21.97 7.09Q21.64 7.34 21.45 7.81L21.45 7.81L21.45 7.81Q21.27 8.27 21.27 8.89L21.27 8.89L21.27 13.78L19.61 13.78ZM29.29 13.78L29.29 13.78Q28.27 13.78 27.82 13.23L27.82 13.23L27.82 13.23Q27.37 12.68 27.37 11.49L27.37 11.49L27.37 6.79L26.45 6.79L26.45 5.63L27.46 5.63L27.77 3.76L29.02 3.76L29.02 5.63L30.61 5.63L30.61 6.79L29.02 6.79L29.02 11.11L29.02 11.11Q29.02 11.64 29.10 11.93L29.10 11.93L29.10 11.93Q29.19 12.22 29.39 12.34L29.39 12.34L29.39 12.34Q29.59 12.46 29.98 12.46L29.98 12.46L30.52 12.46L30.52 13.78L29.29 13.78ZM34.51 13.96L34.51 13.96Q33.52 13.96 32.80 13.50L32.80 13.50L32.80 13.50Q32.07 13.04 31.67 12.10L31.67 12.10L31.67 12.10Q31.27 11.15 31.27 9.73L31.27 9.73L31.27 9.73Q31.27 8.30 31.67 7.35L31.67 7.35L31.67 7.35Q32.07 6.40 32.79 5.94L32.79 5.94L32.79 5.94Q33.52 5.48 34.51 5.48L34.51 5.48L34.51 5.48Q35.51 5.48 36.23 5.94L36.23 5.94L36.23 5.94Q36.96 6.40 37.35 7.35L37.35 7.35L37.35 7.35Q37.75 8.30 37.75 9.73L37.75 9.73L37.75 9.73Q37.75 11.15 37.35 12.10L37.35 12.10L37.35 12.10Q36.96 13.04 36.23 13.50L36.23 13.50L36.23 13.50Q35.51 13.96 34.51 13.96L34.51 13.96ZM34.50 12.63L34.50 12.63Q35.31 12.63 35.73 11.96L35.73 11.96L35.73 11.96Q36.16 11.29 36.16 9.73L36.16 9.73L36.16 9.73Q36.16 8.13 35.74 7.46L35.74 7.46L35.74 7.46Q35.31 6.79 34.50 6.79L34.50 6.79L34.50 6.79Q33.72 6.79 33.30 7.46L33.30 7.46L33.30 7.46Q32.88 8.13 32.88 9.73L32.88 9.73L32.88 9.73Q32.88 11.29 33.30 11.96L33.30 11.96L33.30 11.96Q33.72 12.63 34.50 12.63L34.50 12.63ZM39.33 13.78L39.33 2.80L41.05 2.80L41.05 12.28L44.49 12.28L44.49 13.78L39.33 13.78ZM45.55 4.44L45.55 2.80L47.21 2.80L47.21 4.44L45.55 4.44ZM45.53 13.78L45.53 5.63L47.21 5.63L47.21 13.78L45.53 13.78ZM49.04 13.78L49.04 5.63L50.63 5.63L50.68 6.88L50.75 6.88L50.75 6.88Q51.05 6.21 51.55 5.84L51.55 5.84L51.55 5.84Q52.05 5.48 52.73 5.48L52.73 5.48L52.73 5.48Q53.40 5.48 53.90 5.81L53.90 5.81L53.90 5.81Q54.41 6.15 54.68 6.77L54.68 6.77L54.68 6.77Q54.96 7.40 54.96 8.24L54.96 8.24L54.96 13.78L53.30 13.78L53.30 8.41L53.30 8.41Q53.30 7.57 53.02 7.20L53.02 7.20L53.02 7.20Q52.73 6.84 52.17 6.84L52.17 6.84L52.17 6.84Q51.73 6.84 51.40 7.09L51.40 7.09L51.40 7.09Q51.07 7.34 50.89 7.81L50.89 7.81L50.89 7.81Q50.71 8.27 50.71 8.89L50.71 8.89L50.71 13.78L49.04 13.78ZM62.91 13.78L61.09 13.78L59.36 9.56L58.32 10.62L58.32 13.78L56.66 13.78L56.66 2.80L58.32 2.80L58.32 8.96L60.83 5.63L62.68 5.63L60.44 8.34L62.91 13.78Z"></path></g><!----><g data-v-423bf9ae="" id="db137201-3522-44a8-8b83-1d873622dd44" transform="matrix(1.4702277900381788,0,0,1.4702277900381788,-6.512129820467763,-28.118656500808427)" stroke="none" fill="white"><path d="M76.31 35.389H47.45c-9.202 0-16.853 6.692-18.39 15.46h10.653c1.267-3.025 4.257-5.156 7.737-5.156h28.86c4.625 0 8.389 3.76 8.389 8.385v7.838c0 4.625-3.764 8.387-8.389 8.387H47.45c-.062 0-.12-.017-.182-.018H30.764c3.077 6.111 9.392 10.322 16.687 10.322h28.86c10.306 0 18.69-8.385 18.69-18.691v-7.838C95 43.774 86.616 35.389 76.31 35.389z"></path><path d="M29.527 64.611l.001.004H40.97l-.004-.004H52.55c9.234 0 16.904-6.739 18.404-15.553H60.315c-1.246 3.072-4.252 5.249-7.766 5.249h-9.538v.004h-19.18v-.004h-.141a8.304 8.304 0 0 1-1.917-.242c-3.7-.872-6.471-4.183-6.471-8.146v-7.838c0-4.625 3.764-8.385 8.389-8.385h28.86c.059 0 .114.016.173.017h16.514c-3.077-6.11-9.392-10.321-16.687-10.321H23.69C13.384 19.394 5 27.779 5 38.082v7.838c0 9.778 7.55 17.812 17.124 18.612.518.043 1.037.079 1.566.079h5.837z"></path></g><!----></svg>